<svg width="112" height="112" viewBox="0 0 112 112" fill="none" xmlns="http://www.w3.org/2000/svg">
<g clip-path="url(#clip0_428_519)">
<rect x="2" y="2" width="108" height="108" rx="8" fill="white"/>
<path d="M80.6521 17.3843H31.3967C22.777 17.3843 16.0044 25.8887 16.0044 36.7126V75.3693C16.0044 86.1931 22.777 94.6976 31.3967 94.6976H80.6521C89.2717 94.6976 96.0444 86.1931 96.0444 75.3693V36.7126C96.0444 25.8887 89.2717 17.3843 80.6521 17.3843Z" fill="#00529C"/>
<path d="M41.3253 79.2842V70.7043C41.3253 69.9818 41.4354 69.2793 41.6556 68.597C42.1761 66.9913 43.0069 65.7069 44.148 64.7435C45.3893 63.6798 46.8107 63.1479 48.4122 63.1479C50.1339 63.1479 51.7555 63.8604 53.277 65.2854C54.6584 63.8604 56.2699 63.1479 58.1117 63.1479C59.7133 63.1479 61.1447 63.6698 62.406 64.7134C63.6672 65.757 64.508 67.0817 64.9284 68.6873C65.1286 69.4499 65.2287 70.0721 65.2287 70.5538V79.2842H60.8144V70.7946C60.7744 70.4735 60.7543 70.2929 60.7543 70.2527C60.6142 69.5503 60.3239 68.9482 59.8835 68.4464C59.383 67.8845 58.8024 67.6035 58.1418 67.6035C57.4811 67.6035 56.9006 67.8845 56.4001 68.4464C55.9796 68.9482 55.6994 69.5503 55.5592 70.2527C55.5392 70.3932 55.5192 70.5738 55.4992 70.7946V79.2842H51.0548V70.7043C51.0148 70.4033 50.9948 70.2427 50.9948 70.2226C50.8546 69.5202 50.5643 68.9181 50.1239 68.4163C49.6234 67.8744 49.0428 67.6035 48.3822 67.6035C47.6214 67.6035 46.9808 67.9748 46.4603 68.7174C45.9798 69.3797 45.7396 70.1122 45.7396 70.915V79.2842H41.3253Z" fill="#F36F21"/>
<path d="M66.3098 71.2161C66.3098 69.0084 67.0906 67.1218 68.6521 65.5563C70.2136 63.9909 72.0855 63.2081 74.2676 63.2081C76.4898 63.2081 78.3917 63.9909 79.9732 65.5563C81.5548 67.1218 82.3456 69.0184 82.3456 71.2462C82.3456 73.4338 81.5548 75.3204 79.9732 76.9059C78.4117 78.4915 76.5298 79.2842 74.3277 79.2842C72.1055 79.2842 70.2136 78.5015 68.6521 76.9361C67.0906 75.3505 66.3098 73.4439 66.3098 71.2161ZM70.7241 71.2161C70.7241 72.2196 71.0745 73.0726 71.7752 73.775C72.4759 74.4775 73.3267 74.8287 74.3277 74.8287C75.3086 74.8287 76.1495 74.4775 76.8502 73.775C77.5709 73.0525 77.9312 72.1995 77.9312 71.2161C77.9312 70.2327 77.5709 69.3897 76.8502 68.6873C76.1295 67.9848 75.2786 67.6336 74.2977 67.6336C73.3167 67.6336 72.4759 67.9848 71.7752 68.6873C71.0745 69.3897 70.7241 70.2327 70.7241 71.2161Z" fill="#F36F21"/>
<path d="M48.1377 43.9612C48.3206 43.7819 48.5366 43.5512 48.7858 43.2687C49.0345 42.9863 49.27 42.6528 49.4925 42.2676C49.7151 41.8824 49.9051 41.4533 50.0619 40.9782C50.2194 40.5038 50.2982 39.9969 50.2982 39.4581C50.2982 38.4066 50.1146 37.4252 49.7482 36.5141C49.3812 35.6035 48.8183 34.8077 48.0589 34.1273C47.2994 33.4482 46.3506 32.9151 45.2111 32.53C44.0723 32.1455 42.7427 31.9529 41.2245 31.9529H31.2079V58.8943H42.2065C43.8035 58.8943 45.1974 58.6827 46.3896 58.2593C47.5805 57.8359 48.5697 57.2524 49.3552 56.5082C50.1406 55.7641 50.7231 54.8982 51.1031 53.9105C51.4825 52.9228 51.6725 51.8642 51.6725 50.7349C51.6725 49.2212 51.3191 47.8744 50.6124 46.6935C49.905 45.5138 49.08 44.6027 48.1377 43.9612ZM43.2745 36.8896C43.6447 37.028 43.9539 37.2077 44.1953 37.4341C44.8207 38.022 45.1337 38.7247 45.1337 39.5422C45.1337 40.2837 45.003 40.8965 44.7426 41.3818C44.4817 41.8677 44.2207 42.2381 43.9604 42.4932H36.3146V36.5713H41.0671C41.958 36.5713 42.6914 36.6791 43.2745 36.8896ZM42.4812 47.1558C43.8654 47.1558 44.891 47.5072 45.5587 48.2086C46.1867 48.8992 46.503 49.7141 46.503 50.6572C46.503 51.629 46.1444 52.4586 45.4272 53.1485C44.7094 53.8384 43.5303 54.1841 41.8871 54.1841H36.3146V47.1558H42.4812ZM70.3197 47.2904C71.1443 46.7389 71.8321 46.0974 72.382 45.366C72.9318 44.6346 73.3373 43.8267 73.5995 42.9416C73.8612 42.0559 73.9926 41.1517 73.9926 40.2278C73.9926 39.022 73.7888 37.9125 73.3835 36.8986C72.9767 35.8854 72.3683 35.0131 71.5568 34.2816C70.7446 33.5502 69.7301 32.9795 68.5125 32.5689C67.2949 32.1589 65.8873 31.9529 64.2903 31.9529H53.4682V58.8944H58.6737V48.8877H61.5761L68.7548 58.8944H74.8563L67.4331 48.5415C68.5322 48.2596 69.4945 47.8426 70.3197 47.2904ZM64.3296 36.5715C64.6407 36.5714 64.9515 36.5906 65.2602 36.6288C66.1882 36.7658 66.9464 37.0905 67.5308 37.6063C68.326 38.3096 68.7236 39.1717 68.7236 40.1933C68.7239 40.7021 68.6379 41.2074 68.4692 41.6885C68.3025 42.1696 68.0286 42.6081 67.6674 42.9721C67.3017 43.3432 66.8324 43.6429 66.2591 43.8731C65.6851 44.1033 64.994 44.2181 64.1858 44.2181H58.6738V36.5714L64.3296 36.5715ZM76.6946 31.9529V31.9601L76.538 31.9529H76.4938V58.8944H81.8014V31.9529L76.6946 31.9529Z" fill="white"/>
</g>
<rect x="1" y="1" width="110" height="110" rx="9" stroke="#CCCCCC" stroke-width="2"/>
<defs>
<clipPath id="clip0_428_519">
<rect x="2" y="2" width="108" height="108" rx="8" fill="white"/>
</clipPath>
</defs>
</svg>
